<?xml version="1.0" encoding="UTF-8"?>

<!DOCTYPE svg PUBLIC '-//W3C//DTD SVG 1.0//EN' 'http://www.w3.org/TR/2001/REC-SVG-20010904/DTD/svg10.dtd'>
<svg xmlns:xlink="http://www.w3.org/1999/xlink" style="fill-opacity:1; color-rendering:auto; color-interpolation:auto; text-rendering:auto; stroke:black; stroke-linecap:square; stroke-miterlimit:10; shape-rendering:auto; stroke-opacity:1; fill:black; stroke-dasharray:none; font-weight:normal; stroke-width:1; font-family:&apos;Dialog&apos;; font-style:normal; stroke-linejoin:miter; font-size:12; stroke-dashoffset:0; image-rendering:auto;" xmlns="http://www.w3.org/2000/svg">
  <!--Generated by the Batik Graphics2D SVG Generator-->
  <defs id="genericDefs" />
  <g>
    <g style="fill:rgb(212,208,200); stroke:rgb(212,208,200);">
      <rect x="0" y="0" width="1912" style="stroke:none;" height="958" />
    </g>
    <g style="fill:white; text-rendering:optimizeLegibility; stroke-width:0.35; font-weight:bold; stroke:white;">
      <rect x="31" y="16" width="1499" style="stroke:none;" height="7" />
      <rect x="30" y="15" width="1500" style="fill:none; stroke:black;" height="8" />
      <line x1="30" x2="30" y1="15" style="fill:none; stroke:black; stroke-width:1;" y2="23" />
      <line x1="30" x2="30" y1="23" style="fill:none; stroke:black;" y2="65" />
      <line x1="31.6015103" x2="31.6015103" y1="15" style="fill:none; stroke:black; stroke-width:1;" y2="23" />
      <line x1="31.6015103" x2="80" y1="23" style="fill:none; stroke:black;" y2="65" />
      <line x1="33.8458382" x2="33.8458382" y1="15" style="fill:none; stroke:black; stroke-width:1;" y2="23" />
      <line x1="33.8458382" x2="130" y1="23" style="fill:none; stroke:black;" y2="65" />
      <line x1="34.0771713" x2="34.0771713" y1="15" style="fill:none; stroke:black; stroke-width:1;" y2="23" />
      <line x1="34.0771713" x2="180" y1="23" style="fill:none; stroke:black;" y2="65" />
      <line x1="34.4863735" x2="34.4863735" y1="15" style="fill:none; stroke:black; stroke-width:1;" y2="23" />
      <line x1="34.4863735" x2="230" y1="23" style="fill:none; stroke:black;" y2="65" />
      <line x1="35.1143402" x2="35.1143402" y1="15" style="fill:none; stroke:black; stroke-width:1;" y2="23" />
      <line x1="35.1143402" x2="280" y1="23" style="fill:none; stroke:black;" y2="65" />
      <line x1="35.4206165" x2="35.4206165" y1="15" style="fill:none; stroke:black; stroke-width:1;" y2="23" />
      <line x1="35.4206165" x2="330" y1="23" style="fill:none; stroke:black;" y2="65" />
      <line x1="38.3670728" x2="38.3670728" y1="15" style="fill:none; stroke:black; stroke-width:1;" y2="23" />
      <line x1="38.3670728" x2="380" y1="23" style="fill:none; stroke:black;" y2="65" />
      <line x1="39.9285945" x2="39.9285945" y1="15" style="fill:none; stroke:black; stroke-width:1;" y2="23" />
      <line x1="39.9285945" x2="430" y1="23" style="fill:none; stroke:black;" y2="65" />
      <line x1="42.2243229" x2="42.2243229" y1="15" style="fill:none; stroke:black; stroke-width:1;" y2="23" />
      <line x1="42.2243229" x2="480" y1="23" style="fill:none; stroke:black;" y2="65" />
      <line x1="43.2229727" x2="43.2229727" y1="15" style="fill:none; stroke:black; stroke-width:1;" y2="23" />
      <line x1="43.2229727" x2="530" y1="23" style="fill:none; stroke:black;" y2="65" />
      <line x1="44.559008" x2="44.559008" y1="15" style="fill:none; stroke:black; stroke-width:1;" y2="23" />
      <line x1="44.559008" x2="580" y1="23" style="fill:none; stroke:black;" y2="65" />
      <line x1="66.2400984" x2="66.2400984" y1="15" style="fill:none; stroke:black; stroke-width:1;" y2="23" />
      <line x1="66.2400984" x2="630" y1="23" style="fill:none; stroke:black;" y2="65" />
      <line x1="66.5727003" x2="66.5727003" y1="15" style="fill:none; stroke:black; stroke-width:1;" y2="23" />
      <line x1="66.5727003" x2="680" y1="23" style="fill:none; stroke:black;" y2="65" />
      <line x1="67.0520935" x2="67.0520935" y1="15" style="fill:none; stroke:black; stroke-width:1;" y2="23" />
      <line x1="67.0520935" x2="730" y1="23" style="fill:none; stroke:black;" y2="65" />
      <line x1="67.6216875" x2="67.6216875" y1="15" style="fill:none; stroke:black; stroke-width:1;" y2="23" />
      <line x1="67.6216875" x2="780" y1="23" style="fill:none; stroke:black;" y2="65" />
      <line x1="67.6952864" x2="67.6952864" y1="15" style="fill:none; stroke:black; stroke-width:1;" y2="23" />
      <line x1="67.6952864" x2="830" y1="23" style="fill:none; stroke:black;" y2="65" />
      <line x1="67.7020397" x2="67.7020397" y1="15" style="fill:none; stroke:black; stroke-width:1;" y2="23" />
      <line x1="67.7020397" x2="880" y1="23" style="fill:none; stroke:black;" y2="65" />
      <line x1="67.8484558" x2="67.8484558" y1="15" style="fill:none; stroke:black; stroke-width:1;" y2="23" />
      <line x1="67.8484558" x2="930" y1="23" style="fill:none; stroke:black;" y2="65" />
      <line x1="86.8034489" x2="86.8034489" y1="15" style="fill:none; stroke:black; stroke-width:1;" y2="23" />
      <line x1="86.8034489" x2="980" y1="23" style="fill:none; stroke:black;" y2="65" />
      <line x1="106.252655" x2="106.252655" y1="15" style="fill:none; stroke:black; stroke-width:1;" y2="23" />
      <line x1="106.252655" x2="1030" y1="23" style="fill:none; stroke:black;" y2="65" />
      <line x1="536.3157673" x2="536.3157673" y1="15" style="fill:none; stroke:black; stroke-width:1;" y2="23" />
      <line x1="536.3157673" x2="1080" y1="23" style="fill:none; stroke:black;" y2="65" />
      <line x1="536.4278852" x2="536.4278852" y1="15" style="fill:none; stroke:black; stroke-width:1;" y2="23" />
      <line x1="536.4278852" x2="1130" y1="23" style="fill:none; stroke:black;" y2="65" />
      <line x1="536.473564" x2="536.473564" y1="15" style="fill:none; stroke:black; stroke-width:1;" y2="23" />
      <line x1="536.473564" x2="1180" y1="23" style="fill:none; stroke:black;" y2="65" />
      <line x1="557.544728" x2="557.544728" y1="15" style="fill:none; stroke:black; stroke-width:1;" y2="23" />
      <line x1="557.544728" x2="1230" y1="23" style="fill:none; stroke:black;" y2="65" />
      <line x1="906.387011" x2="906.387011" y1="15" style="fill:none; stroke:black; stroke-width:1;" y2="23" />
      <line x1="906.387011" x2="1280" y1="23" style="fill:none; stroke:black;" y2="65" />
      <line x1="912.4512581" x2="912.4512581" y1="15" style="fill:none; stroke:black; stroke-width:1;" y2="23" />
      <line x1="912.4512581" x2="1330" y1="23" style="fill:none; stroke:black;" y2="65" />
      <line x1="947.0653967" x2="947.0653967" y1="15" style="fill:none; stroke:black; stroke-width:1;" y2="23" />
      <line x1="947.0653967" x2="1380" y1="23" style="fill:none; stroke:black;" y2="65" />
      <line x1="1011.884995" x2="1011.884995" y1="15" style="fill:none; stroke:black; stroke-width:1;" y2="23" />
      <line x1="1011.884995" x2="1430" y1="23" style="fill:none; stroke:black;" y2="65" />
      <line x1="1522.0280288" x2="1522.0280288" y1="15" style="fill:none; stroke:black; stroke-width:1;" y2="23" />
      <line x1="1522.0280288" x2="1480" y1="23" style="fill:none; stroke:black;" y2="65" />
      <line x1="1530" x2="1530" y1="15" style="fill:none; stroke:black; stroke-width:1;" y2="23" />
      <line x1="1530" x2="1530" y1="23" style="fill:none; stroke:black;" y2="65" />
      <text x="3" y="4" transform="translate(30,251) rotate(-90)" style="fill:black; stroke:none; font-weight:normal;" xml:space="preserve">UC_Pep_Genomic_3860869</text>
      <text x="3" y="54" transform="translate(30,251) rotate(-90)" style="fill:black; stroke:none;" xml:space="preserve">UC_Pep_Genomic_3860906</text>
      <text x="3" y="104" transform="translate(30,251) rotate(-90)" style="fill:black; stroke:none;" xml:space="preserve">UC_Pep_Genomic_3860953</text>
      <text x="3" y="154" transform="translate(30,251) rotate(-90)" style="fill:black; stroke:none; font-weight:normal;" xml:space="preserve">UC_Pep_Genomic_3860983</text>
      <text x="3" y="204" transform="translate(30,251) rotate(-90)" style="fill:black; stroke:none; font-weight:normal;" xml:space="preserve">UC_Pep_Genomic_3861031</text>
      <text x="3" y="254" transform="translate(30,251) rotate(-90)" style="fill:black; stroke:none;" xml:space="preserve">UC_Pep_Genomic_3861081</text>
      <text x="3" y="304" transform="translate(30,251) rotate(-90)" style="fill:black; stroke:none;" xml:space="preserve">UC_Pep_Genomic_3861120</text>
      <text x="3" y="354" transform="translate(30,251) rotate(-90)" style="fill:black; stroke:none; font-weight:normal;" xml:space="preserve">UC_Pep_Genomic_3861215</text>
      <text x="3" y="404" transform="translate(30,251) rotate(-90)" style="fill:black; stroke:none; font-weight:normal;" xml:space="preserve">UC_Pep_Genomic_3861250</text>
      <text x="3" y="454" transform="translate(30,251) rotate(-90)" style="fill:black; stroke:none;" xml:space="preserve">UC_Pep_Genomic_3861325</text>
      <text x="3" y="504" transform="translate(30,251) rotate(-90)" style="fill:black; stroke:none;" xml:space="preserve">UC_Pep_Genomic_3861355</text>
      <text x="3" y="554" transform="translate(30,251) rotate(-90)" style="fill:black; stroke:none; font-weight:normal;" xml:space="preserve">UC_Pep_Genomic_3861417</text>
      <text x="3" y="604" transform="translate(30,251) rotate(-90)" style="fill:black; stroke:none;" xml:space="preserve">UC_Pep_Genomic_3861762</text>
      <text x="3" y="654" transform="translate(30,251) rotate(-90)" style="fill:black; stroke:none;" xml:space="preserve">UC_Pep_Genomic_3861775</text>
      <text x="3" y="704" transform="translate(30,251) rotate(-90)" style="fill:black; stroke:none;" xml:space="preserve">UC_Pep_Genomic_3861819</text>
      <text x="3" y="754" transform="translate(30,251) rotate(-90)" style="fill:black; stroke:none;" xml:space="preserve">UC_Pep_Genomic_3861842</text>
      <text x="3" y="804" transform="translate(30,251) rotate(-90)" style="fill:black; stroke:none;" xml:space="preserve">UC_Pep_Genomic_3861854</text>
      <text x="3" y="854" transform="translate(30,251) rotate(-90)" style="fill:black; stroke:none;" xml:space="preserve">UC_Pep_Genomic_3861856</text>
      <text x="3" y="904" transform="translate(30,251) rotate(-90)" style="fill:black; stroke:none;" xml:space="preserve">UC_Pep_Genomic_3861884</text>
      <text x="3" y="954" transform="translate(30,251) rotate(-90)" style="fill:black; stroke:none; font-weight:normal;" xml:space="preserve">UC_Pep_Genomic_3862128</text>
      <text x="3" y="1004" transform="translate(30,251) rotate(-90)" style="fill:black; stroke:none; font-weight:normal;" xml:space="preserve">UC_Pep_Genomic_3862410</text>
      <text x="3" y="1054" transform="translate(30,251) rotate(-90)" style="fill:black; stroke:none;" xml:space="preserve">UC_Pep_Genomic_3869052</text>
      <text x="3" y="1104" transform="translate(30,251) rotate(-90)" style="fill:black; stroke:none;" xml:space="preserve">UC_Pep_Genomic_3869063</text>
      <text x="3" y="1154" transform="translate(30,251) rotate(-90)" style="fill:black; stroke:none;" xml:space="preserve">UC_Pep_Genomic_3869066</text>
      <text x="3" y="1204" transform="translate(30,251) rotate(-90)" style="fill:black; stroke:none; font-weight:normal;" xml:space="preserve">UC_Pep_Genomic_3869616</text>
      <text x="3" y="1254" transform="translate(30,251) rotate(-90)" style="fill:black; stroke:none; font-weight:normal;" xml:space="preserve">UC_Pep_Genomic_3874942</text>
      <text x="3" y="1304" transform="translate(30,251) rotate(-90)" style="fill:black; stroke:none; font-weight:normal;" xml:space="preserve">UC_Pep_Genomic_3875520</text>
      <text x="3" y="1354" transform="translate(30,251) rotate(-90)" style="fill:black; stroke:none; font-weight:normal;" xml:space="preserve">UC_Pep_Genomic_3876419</text>
      <text x="3" y="1404" transform="translate(30,251) rotate(-90)" style="fill:black; stroke:none; font-weight:normal;" xml:space="preserve">UC_Pep_Genomic_3877966</text>
      <text x="3" y="1454" transform="translate(30,251) rotate(-90)" style="fill:black; stroke:none; font-weight:normal;" xml:space="preserve">UC_Pep_Genomic_3882576</text>
      <text x="3" y="1504" transform="translate(30,251) rotate(-90)" style="fill:black; stroke:none; font-weight:normal;" xml:space="preserve">UC_Pep_Genomic_3882800</text>
    </g>
    <g style="text-rendering:geometricPrecision; stroke-width:0.35; shape-rendering:crispEdges; font-family:sans-serif; font-weight:bold;">
      <text xml:space="preserve" x="26" y="297" style="stroke:none;">1</text>
      <text xml:space="preserve" x="76" y="297" style="stroke:none;">2</text>
      <text xml:space="preserve" x="126" y="297" style="stroke:none;">3</text>
      <text xml:space="preserve" x="176" y="297" style="stroke:none;">4</text>
      <text xml:space="preserve" x="226" y="297" style="stroke:none;">5</text>
      <text xml:space="preserve" x="276" y="297" style="stroke:none;">6</text>
      <text xml:space="preserve" x="326" y="297" style="stroke:none;">7</text>
      <text xml:space="preserve" x="376" y="297" style="stroke:none;">8</text>
      <text xml:space="preserve" x="426" y="297" style="stroke:none;">9</text>
      <text xml:space="preserve" x="472" y="297" style="stroke:none;">10</text>
      <text xml:space="preserve" x="522" y="297" style="stroke:none;">11</text>
      <text xml:space="preserve" x="572" y="297" style="stroke:none;">12</text>
      <text xml:space="preserve" x="622" y="297" style="stroke:none;">13</text>
      <text xml:space="preserve" x="672" y="297" style="stroke:none;">14</text>
      <text xml:space="preserve" x="722" y="297" style="stroke:none;">15</text>
      <text xml:space="preserve" x="772" y="297" style="stroke:none;">16</text>
      <text xml:space="preserve" x="822" y="297" style="stroke:none;">17</text>
      <text xml:space="preserve" x="872" y="297" style="stroke:none;">18</text>
      <text xml:space="preserve" x="922" y="297" style="stroke:none;">19</text>
      <text xml:space="preserve" x="972" y="297" style="stroke:none;">20</text>
      <text xml:space="preserve" x="1022" y="297" style="stroke:none;">21</text>
      <text xml:space="preserve" x="1072" y="297" style="stroke:none;">22</text>
      <text xml:space="preserve" x="1122" y="297" style="stroke:none;">23</text>
      <text xml:space="preserve" x="1172" y="297" style="stroke:none;">24</text>
      <text xml:space="preserve" x="1222" y="297" style="stroke:none;">25</text>
      <text xml:space="preserve" x="1272" y="297" style="stroke:none;">26</text>
      <text xml:space="preserve" x="1322" y="297" style="stroke:none;">27</text>
      <text xml:space="preserve" x="1372" y="297" style="stroke:none;">28</text>
      <text xml:space="preserve" x="1422" y="297" style="stroke:none;">29</text>
      <text xml:space="preserve" x="1472" y="297" style="stroke:none;">30</text>
      <text xml:space="preserve" x="1522" y="297" style="stroke:none;">31</text>
      <polygon style="fill:white; stroke:none;" points=" 55 298 79 322 55 346 31 322" />
      <text x="51" y="328" style="fill:gray; stroke:none; font-weight:normal;" xml:space="preserve">0</text>
      <polygon style="fill:rgb(255,224,224); stroke:none;" points=" 80 323 104 347 80 371 56 347" />
      <text x="76" y="353" style="fill:gray; stroke:none; font-weight:normal;" xml:space="preserve">5</text>
      <polygon style="fill:white; stroke:none;" points=" 105 348 129 372 105 396 81 372" />
      <text x="101" y="378" style="fill:gray; stroke:none; font-weight:normal;" xml:space="preserve">1</text>
      <polygon style="fill:rgb(255,224,224); stroke:none;" points=" 130 373 154 397 130 421 106 397" />
      <text x="126" y="403" style="fill:gray; stroke:none; font-weight:normal;" xml:space="preserve">5</text>
      <polygon style="fill:white; stroke:none;" points=" 155 398 179 422 155 446 131 422" />
      <text x="151" y="428" style="fill:gray; stroke:none; font-weight:normal;" xml:space="preserve">1</text>
      <polygon style="fill:white; stroke:none;" points=" 180 423 204 447 180 471 156 447" />
      <text x="176" y="453" style="fill:gray; stroke:none; font-weight:normal;" xml:space="preserve">0</text>
      <polygon style="fill:rgb(255,224,224); stroke:none;" points=" 205 448 229 472 205 496 181 472" />
      <text x="201" y="478" style="fill:gray; stroke:none; font-weight:normal;" xml:space="preserve">4</text>
      <polygon style="fill:white; stroke:none;" points=" 230 473 254 497 230 521 206 497" />
      <text x="226" y="503" style="fill:gray; stroke:none; font-weight:normal;" xml:space="preserve">1</text>
      <polygon style="fill:rgb(255,224,224); stroke:none;" points=" 255 498 279 522 255 546 231 522" />
      <text x="251" y="528" style="fill:gray; stroke:none; font-weight:normal;" xml:space="preserve">9</text>
      <polygon style="fill:white; stroke:none;" points=" 280 523 304 547 280 571 256 547" />
      <text x="276" y="553" style="fill:gray; stroke:none; font-weight:normal;" xml:space="preserve">1</text>
      <polygon style="fill:white; stroke:none;" points=" 305 548 329 572 305 596 281 572" />
      <text x="301" y="578" style="fill:gray; stroke:none; font-weight:normal;" xml:space="preserve">0</text>
      <polygon style="fill:rgb(255,74,74); stroke:none;" points=" 105 298 129 322 105 346 81 322" />
      <text x="101" y="328" style="fill:gray; stroke:none; font-weight:normal;" xml:space="preserve">3</text>
      <polygon style="fill:white; stroke:none;" points=" 130 323 154 347 130 371 106 347" />
      <text x="126" y="353" style="fill:gray; stroke:none; font-weight:normal;" xml:space="preserve">0</text>
      <polygon style="fill:white; stroke:none;" points=" 155 348 179 372 155 396 131 372" />
      <text x="151" y="378" style="fill:gray; stroke:none; font-weight:normal;" xml:space="preserve">0</text>
      <polygon style="fill:rgb(255,224,224); stroke:none;" points=" 180 373 204 397 180 421 156 397" />
      <text x="176" y="403" style="fill:gray; stroke:none; font-weight:normal;" xml:space="preserve">3</text>
      <polygon style="fill:white; stroke:none;" points=" 205 398 229 422 205 446 181 422" />
      <text x="201" y="428" style="fill:gray; stroke:none; font-weight:normal;" xml:space="preserve">0</text>
      <polygon style="fill:rgb(255,224,224); stroke:none;" points=" 230 423 254 447 230 471 206 447" />
      <text x="226" y="453" style="fill:gray; stroke:none; font-weight:normal;" xml:space="preserve">4</text>
      <polygon style="fill:white; stroke:none;" points=" 255 448 279 472 255 496 231 472" />
      <text x="251" y="478" style="fill:gray; stroke:none; font-weight:normal;" xml:space="preserve">1</text>
      <polygon style="fill:white; stroke:none;" points=" 280 473 304 497 280 521 256 497" />
      <text x="276" y="503" style="fill:gray; stroke:none; font-weight:normal;" xml:space="preserve">0</text>
      <polygon style="fill:red; stroke:none;" points=" 305 498 329 522 305 546 281 522" />
      <text x="301" y="528" style="fill:gray; stroke:none; font-weight:normal;" xml:space="preserve">3</text>
      <polygon style="fill:white; stroke:none;" points=" 330 523 354 547 330 571 306 547" />
      <text x="326" y="553" style="fill:gray; stroke:none; font-weight:normal;" xml:space="preserve">0</text>
      <polygon style="fill:white; stroke:none;" points=" 155 298 179 322 155 346 131 322" />
      <text x="151" y="328" style="fill:gray; stroke:none; font-weight:normal;" xml:space="preserve">0</text>
      <polygon style="fill:rgb(255,72,72); stroke:none;" points=" 180 323 204 347 180 371 156 347" />
      <text x="172" y="353" style="fill:gray; stroke:none; font-weight:normal;" xml:space="preserve">26</text>
      <polygon style="fill:rgb(255,224,224); stroke:none;" points=" 205 348 229 372 205 396 181 372" />
      <text x="201" y="378" style="fill:gray; stroke:none; font-weight:normal;" xml:space="preserve">3</text>
      <polygon style="fill:white; stroke:none;" points=" 230 373 254 397 230 421 206 397" />
      <text x="226" y="403" style="fill:gray; stroke:none; font-weight:normal;" xml:space="preserve">0</text>
      <polygon style="fill:white; stroke:none;" points=" 255 398 279 422 255 446 231 422" />
      <text x="251" y="428" style="fill:gray; stroke:none; font-weight:normal;" xml:space="preserve">0</text>
      <polygon style="fill:white; stroke:none;" points=" 280 423 304 447 280 471 256 447" />
      <text x="276" y="453" style="fill:gray; stroke:none; font-weight:normal;" xml:space="preserve">1</text>
      <polygon style="fill:white; stroke:none;" points=" 305 448 329 472 305 496 281 472" />
      <text x="301" y="478" style="fill:gray; stroke:none; font-weight:normal;" xml:space="preserve">1</text>
      <polygon style="fill:rgb(255,224,224); stroke:none;" points=" 330 473 354 497 330 521 306 497" />
      <text x="326" y="503" style="fill:gray; stroke:none; font-weight:normal;" xml:space="preserve">7</text>
      <polygon style="fill:white; stroke:none;" points=" 355 498 379 522 355 546 331 522" />
      <text x="351" y="528" style="fill:gray; stroke:none; font-weight:normal;" xml:space="preserve">0</text>
      <polygon style="fill:rgb(255,181,181); stroke:none;" points=" 205 298 229 322 205 346 181 322" />
      <text x="197" y="328" style="fill:gray; stroke:none; font-weight:normal;" xml:space="preserve">15</text>
      <polygon style="fill:white; stroke:none;" points=" 230 323 254 347 230 371 206 347" />
      <text x="226" y="353" style="fill:gray; stroke:none; font-weight:normal;" xml:space="preserve">0</text>
      <polygon style="fill:white; stroke:none;" points=" 255 348 279 372 255 396 231 372" />
      <text x="251" y="378" style="fill:gray; stroke:none; font-weight:normal;" xml:space="preserve">0</text>
      <polygon style="fill:white; stroke:none;" points=" 280 373 304 397 280 421 256 397" />
      <text x="276" y="403" style="fill:gray; stroke:none; font-weight:normal;" xml:space="preserve">2</text>
      <polygon style="fill:white; stroke:none;" points=" 305 398 329 422 305 446 281 422" />
      <text x="301" y="428" style="fill:gray; stroke:none; font-weight:normal;" xml:space="preserve">1</text>
      <polygon style="fill:white; stroke:none;" points=" 330 423 354 447 330 471 306 447" />
      <text x="326" y="453" style="fill:gray; stroke:none; font-weight:normal;" xml:space="preserve">0</text>
      <polygon style="fill:white; stroke:none;" points=" 355 448 379 472 355 496 331 472" />
      <text x="351" y="478" style="fill:gray; stroke:none; font-weight:normal;" xml:space="preserve">0</text>
      <polygon style="fill:white; stroke:none;" points=" 380 473 404 497 380 521 356 497" />
      <text x="376" y="503" style="fill:gray; stroke:none; font-weight:normal;" xml:space="preserve">0</text>
      <polygon style="fill:white; stroke:none;" points=" 255 298 279 322 255 346 231 322" />
      <text x="251" y="328" style="fill:gray; stroke:none; font-weight:normal;" xml:space="preserve">1</text>
      <polygon style="fill:white; stroke:none;" points=" 280 323 304 347 280 371 256 347" />
      <text x="276" y="353" style="fill:gray; stroke:none; font-weight:normal;" xml:space="preserve">0</text>
      <polygon style="fill:rgb(255,224,224); stroke:none;" points=" 305 348 329 372 305 396 281 372" />
      <text x="301" y="378" style="fill:gray; stroke:none; font-weight:normal;" xml:space="preserve">6</text>
      <polygon style="fill:white; stroke:none;" points=" 330 373 354 397 330 421 306 397" />
      <text x="326" y="403" style="fill:gray; stroke:none; font-weight:normal;" xml:space="preserve">0</text>
      <polygon style="fill:white; stroke:none;" points=" 355 398 379 422 355 446 331 422" />
      <text x="351" y="428" style="fill:gray; stroke:none; font-weight:normal;" xml:space="preserve">2</text>
      <polygon style="fill:white; stroke:none;" points=" 380 423 404 447 380 471 356 447" />
      <text x="376" y="453" style="fill:gray; stroke:none; font-weight:normal;" xml:space="preserve">0</text>
      <polygon style="fill:white; stroke:none;" points=" 405 448 429 472 405 496 381 472" />
      <text x="401" y="478" style="fill:gray; stroke:none; font-weight:normal;" xml:space="preserve">0</text>
      <polygon style="fill:rgb(255,36,36); stroke:none;" points=" 305 298 329 322 305 346 281 322" />
      <text x="301" y="328" style="fill:gray; stroke:none; font-weight:normal;" xml:space="preserve">5</text>
      <polygon style="fill:rgb(255,224,224); stroke:none;" points=" 330 323 354 347 330 371 306 347" />
      <text x="326" y="353" style="fill:gray; stroke:none; font-weight:normal;" xml:space="preserve">4</text>
      <polygon style="fill:white; stroke:none;" points=" 355 348 379 372 355 396 331 372" />
      <text x="351" y="378" style="fill:gray; stroke:none; font-weight:normal;" xml:space="preserve">1</text>
      <polygon style="fill:rgb(255,224,224); stroke:none;" points=" 380 373 404 397 380 421 356 397" />
      <text x="376" y="403" style="fill:gray; stroke:none; font-weight:normal;" xml:space="preserve">4</text>
      <polygon style="fill:white; stroke:none;" points=" 405 398 429 422 405 446 381 422" />
      <text x="401" y="428" style="fill:gray; stroke:none; font-weight:normal;" xml:space="preserve">0</text>
      <polygon style="fill:white; stroke:none;" points=" 430 423 454 447 430 471 406 447" />
      <text x="426" y="453" style="fill:gray; stroke:none; font-weight:normal;" xml:space="preserve">0</text>
      <polygon style="fill:white; stroke:none;" points=" 355 298 379 322 355 346 331 322" />
      <text x="351" y="328" style="fill:gray; stroke:none; font-weight:normal;" xml:space="preserve">0</text>
      <polygon style="fill:rgb(192,192,240); stroke:none;" points=" 380 323 404 347 380 371 356 347" />
      <text x="376" y="353" style="fill:gray; stroke:none; font-weight:normal;" xml:space="preserve">3</text>
      <polygon style="fill:white; stroke:none;" points=" 405 348 429 372 405 396 381 372" />
      <text x="401" y="378" style="fill:gray; stroke:none; font-weight:normal;" xml:space="preserve">0</text>
      <polygon style="fill:white; stroke:none;" points=" 430 373 454 397 430 421 406 397" />
      <text x="426" y="403" style="fill:gray; stroke:none; font-weight:normal;" xml:space="preserve">0</text>
      <polygon style="fill:rgb(192,192,240); stroke:none;" points=" 455 398 479 422 455 446 431 422" />
      <text x="451" y="428" style="fill:gray; stroke:none; font-weight:normal;" xml:space="preserve">6</text>
      <polygon style="fill:white; stroke:none;" points=" 405 298 429 322 405 346 381 322" />
      <text x="401" y="328" style="fill:gray; stroke:none; font-weight:normal;" xml:space="preserve">2</text>
      <polygon style="fill:rgb(255,224,224); stroke:none;" points=" 430 323 454 347 430 371 406 347" />
      <text x="426" y="353" style="fill:gray; stroke:none; font-weight:normal;" xml:space="preserve">4</text>
      <polygon style="fill:white; stroke:none;" points=" 455 348 479 372 455 396 431 372" />
      <text x="451" y="378" style="fill:gray; stroke:none; font-weight:normal;" xml:space="preserve">1</text>
      <polygon style="fill:white; stroke:none;" points=" 480 373 504 397 480 421 456 397" />
      <text x="476" y="403" style="fill:gray; stroke:none; font-weight:normal;" xml:space="preserve">1</text>
      <polygon style="fill:white; stroke:none;" points=" 455 298 479 322 455 346 431 322" />
      <text x="451" y="328" style="fill:gray; stroke:none; font-weight:normal;" xml:space="preserve">1</text>
      <polygon style="fill:rgb(255,90,90); stroke:none;" points=" 480 323 504 347 480 371 456 347" />
      <text x="476" y="353" style="fill:gray; stroke:none; font-weight:normal;" xml:space="preserve">5</text>
      <polygon style="fill:red; stroke:none;" points=" 505 348 529 372 505 396 481 372" />
      <text x="497" y="378" style="fill:gray; stroke:none; font-weight:normal;" xml:space="preserve">30</text>
      <polygon style="fill:red; stroke:none;" points=" 505 298 529 322 505 346 481 322" />
      <text x="497" y="328" style="fill:gray; stroke:none; font-weight:normal;" xml:space="preserve">21</text>
      <polygon style="fill:white; stroke:none;" points=" 530 323 554 347 530 371 506 347" />
      <text x="526" y="353" style="fill:gray; stroke:none; font-weight:normal;" xml:space="preserve">0</text>
      <polygon style="fill:white; stroke:none;" points=" 555 298 579 322 555 346 531 322" />
      <text x="551" y="328" style="fill:gray; stroke:none; font-weight:normal;" xml:space="preserve">0</text>
      <polygon style="fill:rgb(255,13,13); stroke:none;" points=" 655 298 679 322 655 346 631 322" />
      <text x="647" y="328" style="font-weight:normal; stroke:none;" xml:space="preserve">91</text>
      <polygon style="fill:red; stroke:none;" points=" 680 323 704 347 680 371 656 347" />
      <text x="676" y="353" style="fill:gray; stroke:none; font-weight:normal;" xml:space="preserve">4</text>
      <polygon style="fill:red; stroke:none;" points=" 705 348 729 372 705 396 681 372" />
      <text x="697" y="378" style="fill:gray; stroke:none; font-weight:normal;" xml:space="preserve">17</text>
      <polygon style="fill:red; stroke:none;" points=" 730 373 754 397 730 421 706 397" />
      <text x="726" y="403" style="fill:gray; stroke:none; font-weight:normal;" xml:space="preserve">5</text>
      <polygon style="fill:rgb(255,43,43); stroke:none;" points=" 755 398 779 422 755 446 731 422" />
      <text x="747" y="428" style="fill:gray; stroke:none; font-weight:normal;" xml:space="preserve">22</text>
      <polygon style="fill:rgb(255,64,64); stroke:none;" points=" 780 423 804 447 780 471 756 447" />
      <text x="772" y="453" style="fill:gray; stroke:none; font-weight:normal;" xml:space="preserve">21</text>
      <polygon style="fill:red; stroke:none;" points=" 705 298 729 322 705 346 681 322" />
      <text x="701" y="328" style="fill:gray; stroke:none; font-weight:normal;" xml:space="preserve">5</text>
      <polygon style="fill:red; stroke:none;" points=" 730 323 754 347 730 371 706 347" />
      <text x="722" y="353" style="fill:gray; stroke:none; font-weight:normal;" xml:space="preserve">18</text>
      <polygon style="fill:red; stroke:none;" points=" 755 348 779 372 755 396 731 372" />
      <text x="751" y="378" style="fill:gray; stroke:none; font-weight:normal;" xml:space="preserve">5</text>
      <polygon style="fill:rgb(255,42,42); stroke:none;" points=" 780 373 804 397 780 421 756 397" />
      <text x="772" y="403" style="fill:gray; stroke:none; font-weight:normal;" xml:space="preserve">23</text>
      <polygon style="fill:rgb(255,62,62); stroke:none;" points=" 805 398 829 422 805 446 781 422" />
      <text x="797" y="428" style="fill:gray; stroke:none; font-weight:normal;" xml:space="preserve">21</text>
      <polygon style="fill:rgb(255,13,13); stroke:none;" points=" 755 298 779 322 755 346 731 322" />
      <text x="747" y="328" style="fill:gray; stroke:none; font-weight:normal;" xml:space="preserve">26</text>
      <polygon style="fill:rgb(255,222,222); stroke:none;" points=" 780 323 804 347 780 371 756 347" />
      <text x="772" y="353" style="fill:gray; stroke:none; font-weight:normal;" xml:space="preserve">21</text>
      <polygon style="fill:rgb(255,16,16); stroke:none;" points=" 805 348 829 372 805 396 781 372" />
      <text x="797" y="378" style="fill:gray; stroke:none; font-weight:normal;" xml:space="preserve">16</text>
      <polygon style="fill:rgb(255,16,16); stroke:none;" points=" 830 373 854 397 830 421 806 397" />
      <text x="822" y="403" style="fill:gray; stroke:none; font-weight:normal;" xml:space="preserve">15</text>
      <polygon style="fill:red; stroke:none;" points=" 805 298 829 322 805 346 781 322" />
      <text x="797" y="328" style="fill:gray; stroke:none; font-weight:normal;" xml:space="preserve">33</text>
      <polygon style="fill:rgb(255,12,12); stroke:none;" points=" 830 323 854 347 830 371 806 347" />
      <text x="822" y="353" style="font-weight:normal; stroke:none;" xml:space="preserve">60</text>
      <polygon style="fill:red; stroke:none;" points=" 855 348 879 372 855 396 831 372" />
      <text x="847" y="378" style="font-weight:normal; stroke:none;" xml:space="preserve">61</text>
      <polygon style="fill:red; stroke:none;" points=" 855 298 879 322 855 346 831 322" />
      <text x="847" y="328" style="fill:gray; stroke:none; font-weight:normal;" xml:space="preserve">21</text>
      <polygon style="fill:red; stroke:none;" points=" 880 323 904 347 880 371 856 347" />
      <text x="872" y="353" style="fill:gray; stroke:none; font-weight:normal;" xml:space="preserve">20</text>
      <polygon style="fill:rgb(255,9,9); stroke:none;" points=" 905 298 929 322 905 346 881 322" />
      <text x="897" y="328" style="font-weight:normal; stroke:none;" xml:space="preserve">91</text>
      <polygon style="fill:red; stroke:none;" points=" 1105 298 1129 322 1105 346 1081 322" />
      <polygon style="fill:red; stroke:none;" points=" 1130 323 1154 347 1130 371 1106 347" />
      <polygon style="fill:red; stroke:none;" points=" 1155 298 1179 322 1155 346 1131 322" />
      <polygon style="fill:white; stroke:none;" points=" 1305 298 1329 322 1305 346 1281 322" />
      <text x="1301" y="328" style="fill:gray; stroke:none; font-weight:normal;" xml:space="preserve">0</text>
      <polygon style="fill:rgb(255,197,197); stroke:none;" points=" 1505 298 1529 322 1505 346 1481 322" />
      <text x="1497" y="328" style="fill:gray; stroke:none; font-weight:normal;" xml:space="preserve">23</text>
      <line x1="56" x2="105" y1="297" style="fill:none; stroke-width:2.5;" y2="346" />
      <line x1="105" x2="154" y1="346" style="fill:none; stroke-width:2.5;" y2="297" />
      <line x1="55" x2="105" y1="266" style="fill:none; stroke-width:2.5;" y2="266" />
      <line x1="105" x2="155" y1="266" style="fill:none; stroke-width:2.5;" y2="266" />
      <line x1="55" x2="55" y1="296" style="fill:none; stroke-width:2.5;" y2="266" />
      <line x1="155" x2="155" y1="296" style="fill:none; stroke-width:2.5;" y2="266" />
      <text x="58" y="281" style="font-family:&apos;Dialog&apos;; stroke:none; font-weight:normal; stroke-width:2.5;" xml:space="preserve">Block 1 (71 kb)</text>
      <line x1="256" x2="305" y1="297" style="fill:none; stroke-width:2.5;" y2="346" />
      <line x1="305" x2="354" y1="346" style="fill:none; stroke-width:2.5;" y2="297" />
      <line x1="255" x2="305" y1="266" style="fill:none; stroke-width:2.5;" y2="266" />
      <line x1="305" x2="355" y1="266" style="fill:none; stroke-width:2.5;" y2="266" />
      <line x1="255" x2="255" y1="296" style="fill:none; stroke-width:2.5;" y2="266" />
      <line x1="355" x2="355" y1="296" style="fill:none; stroke-width:2.5;" y2="266" />
      <text x="258" y="281" style="font-family:&apos;Dialog&apos;; stroke:none; font-weight:normal; stroke-width:2.5;" xml:space="preserve">Block 2 (9 kb)</text>
      <line x1="456" x2="505" y1="297" style="fill:none; stroke-width:2.5;" y2="346" />
      <line x1="505" x2="554" y1="346" style="fill:none; stroke-width:2.5;" y2="297" />
      <line x1="455" x2="505" y1="266" style="fill:none; stroke-width:2.5;" y2="266" />
      <line x1="505" x2="555" y1="266" style="fill:none; stroke-width:2.5;" y2="266" />
      <line x1="455" x2="455" y1="296" style="fill:none; stroke-width:2.5;" y2="266" />
      <line x1="555" x2="555" y1="296" style="fill:none; stroke-width:2.5;" y2="266" />
      <text x="458" y="281" style="font-family:&apos;Dialog&apos;; stroke:none; font-weight:normal; stroke-width:2.5;" xml:space="preserve">Block 3 (31 kb)</text>
      <line x1="606" x2="780" y1="297" style="fill:none; stroke-width:2.5;" y2="471" />
      <line x1="780" x2="954" y1="471" style="fill:none; stroke-width:2.5;" y2="297" />
      <line x1="605" x2="655" y1="266" style="fill:none; stroke-width:2.5;" y2="266" />
      <line x1="655" x2="705" y1="266" style="fill:none; stroke-width:2.5;" y2="266" />
      <line x1="705" x2="755" y1="266" style="fill:none; stroke-width:2.5;" y2="266" />
      <line x1="755" x2="805" y1="266" style="fill:none; stroke-width:2.5;" y2="266" />
      <line x1="805" x2="855" y1="266" style="fill:none; stroke-width:2.5;" y2="266" />
      <line x1="855" x2="905" y1="266" style="fill:none; stroke-width:2.5;" y2="266" />
      <line x1="905" x2="955" y1="266" style="fill:none; stroke-width:2.5;" y2="266" />
      <line x1="605" x2="605" y1="296" style="fill:none; stroke-width:2.5;" y2="266" />
      <line x1="955" x2="955" y1="296" style="fill:none; stroke-width:2.5;" y2="266" />
      <text x="608" y="281" style="font-family:&apos;Dialog&apos;; stroke:none; font-weight:normal; stroke-width:2.5;" xml:space="preserve">Block 4 (51 kb)</text>
      <line x1="1056" x2="1130" y1="297" style="fill:none; stroke-width:2.5;" y2="371" />
      <line x1="1130" x2="1204" y1="371" style="fill:none; stroke-width:2.5;" y2="297" />
      <line x1="1055" x2="1105" y1="266" style="fill:none; stroke-width:2.5;" y2="266" />
      <line x1="1105" x2="1155" y1="266" style="fill:none; stroke-width:2.5;" y2="266" />
      <line x1="1155" x2="1205" y1="266" style="fill:none; stroke-width:2.5;" y2="266" />
      <line x1="1055" x2="1055" y1="296" style="fill:none; stroke-width:2.5;" y2="266" />
      <line x1="1205" x2="1205" y1="296" style="fill:none; stroke-width:2.5;" y2="266" />
      <text x="1058" y="281" style="font-family:&apos;Dialog&apos;; stroke:none; font-weight:normal; stroke-width:2.5;" xml:space="preserve">Block 5 (5 kb)</text>
    </g>
  </g>
</svg>
